<svg id="Capa_1" data-name="Capa 1" xmlns="http://www.w3.org/2000/svg" viewBox="0 0 333.76 40.54"><defs><style>.cls-1{fill:#e84039;}.cls-2{fill:#1d1d1b;}</style></defs><path class="cls-1" d="M110.11,43,95.77,54.6c-.51.41-1,.86-1.54,1.22-1,.66-1.75,2.23-3,1.76s-.5-2-.47-3c.06-1.76-1.07-1.38-2.05-1.38H69.63c-13,0-26.06,0-39.08,0-1.92,0-2.75.42-2.49,2.44.08.66.45,1.61-.38,2s-1.71-.21-2.45-.85c-5.46-4.82-11-9.6-17.11-15C42.28,49.25,75.77,50,110.11,43Z" transform="translate(-8.12 -17.23)"/><path class="cls-1" d="M19.36,29.84A171.35,171.35,0,0,0,98,31.14L83.63,43.23c-.35-.41-.57-.53-.54-.67.54-3-1-3.34-3.6-3.32-14.32.12-28.64.08-43,0-1.56,0-2.56.15-2.28,2.06.09.59.27,1.42-.54,1.69s-1.18-.37-1.64-.83Z" transform="translate(-8.12 -17.23)"/><path class="cls-1" d="M42.07,30A40.76,40.76,0,0,0,58.34,17.87c.83-1.08,1.3-.63,1.9.14,4.21,5.39,9.79,9,15.71,12.3C68.46,33.51,49.16,32.77,42.07,30Z" transform="translate(-8.12 -17.23)"/><path class="cls-2" d="M131.94,32.78a6.7,6.7,0,0,0-5.82-3.22,6.54,6.54,0,0,0-2.91.65A7.14,7.14,0,0,0,121,31.94a8.08,8.08,0,0,0-1.46,2.52,8.7,8.7,0,0,0-.52,3,9,9,0,0,0,.57,3.32,7.4,7.4,0,0,0,1.51,2.4,7.76,7.76,0,0,0,2.2,1.59,6.28,6.28,0,0,0,2.87.64,7,7,0,0,0,3.77-1,8,8,0,0,0,2.75-3.32l2.41,1.09a8.14,8.14,0,0,1-1.77,2.75,9.28,9.28,0,0,1-3.08,2.14,9.88,9.88,0,0,1-11.14-2.16,9.58,9.58,0,0,1-2.13-3.37,11.48,11.48,0,0,1-.74-4.08,11.09,11.09,0,0,1,.74-4,9.81,9.81,0,0,1,2.06-3.3,9.57,9.57,0,0,1,3.15-2.22,9.77,9.77,0,0,1,4-.81,9.15,9.15,0,0,1,5.64,1.76,9.28,9.28,0,0,1,1.67,1.56h1.46v2.35Z" transform="translate(-8.12 -17.23)"/><path class="cls-2" d="M152.5,27.51h6.75v2.26h-2V45.23h2v2.26H152.5V45.23h2.08V38h-12v7.19h2.08v2.26h-6.75V45.23h2V29.77h-2V27.51h6.75v2.26h-2.08v6.06h12V29.77H152.5Z" transform="translate(-8.12 -17.23)"/><path class="cls-2" d="M163.17,27.51h6.65v2.28h-2V45.23h2v2.26h-6.65V45.23h2V29.79h-2Z" transform="translate(-8.12 -17.23)"/><path class="cls-2" d="M173.74,27.51h14.9v5.65h-2.81V29.79h-7.42v6.42h7.15v2.21h-7.15v6.81h2.08v2.26h-6.75V45.23h2V29.79h-2Z" transform="translate(-8.12 -17.23)"/><path class="cls-2" d="M202.07,45.23h1.73l-1.65-4.54h-8l-1.61,4.54h2.14v2.26h-6.75V45.23h1.81l6.48-17.72h4.05l6.46,17.72h2.09v2.26h-6.75Zm-7.14-6.73h6.42l-3.24-8.94Z" transform="translate(-8.12 -17.23)"/><path class="cls-2" d="M221.32,45.23h1.91V29.67h-4.75v3.11h-2.81V27.51h18.55v5.27h-2.81V29.67h-5.49V45.23h2.14v2.26h-6.74Z" transform="translate(-8.12 -17.23)"/><path class="cls-2" d="M246.53,45.23h1.73l-1.64-4.54h-8L237,45.23h2.14v2.26H232.4V45.23h1.81l6.48-17.72h4.05l6.46,17.72h2.09v2.26h-6.76ZM239.4,38.5h6.42l-3.24-8.94Z" transform="translate(-8.12 -17.23)"/><path class="cls-2" d="M255.39,27.51H262v2.28h-2V45.23h2v2.26h-6.64V45.23h2V29.79h-2Z" transform="translate(-8.12 -17.23)"/><path class="cls-2" d="M292.24,27.51H299v2.28h-1.81l-5.95,17.7H287l-5.64-17.41-5.2,17.41H272L266,29.79h-1.84V27.51h6.75v2.28h-1.81l5,15.36,5.31-17.64h4.1l5.66,17.64,5.13-15.36h-2.07Z" transform="translate(-8.12 -17.23)"/><path class="cls-2" d="M313.4,45.23h1.73l-1.65-4.54h-8l-1.61,4.54H306v2.26h-6.76V45.23h1.81l6.48-17.72h4.05l6.47,17.72h2.08v2.26H313.4Zm-7.14-6.73h6.43l-3.24-8.94Z" transform="translate(-8.12 -17.23)"/><path class="cls-2" d="M335.12,27.51h6.76v2.28h-1.77v17.7h-3.52l-9.67-16.57V45.23h2.14v2.26h-6.75V45.23h1.92V29.79h-2V27.48h5.6l9.5,16.41.11-.63V29.79h-2.34Z" transform="translate(-8.12 -17.23)"/></svg>